<!DOCTYPE svg PUBLIC "-//W3C//DTD SVG 1.1//EN" "http://www.w3.org/Graphics/SVG/1.1/DTD/svg11.dtd"><svg version="1" xmlns="http://www.w3.org/2000/svg" width="1045" height="692"><path fill-rule="evenodd" clip-rule="evenodd" fill="#000000" d="M270 415c11-1 16 2 15 15l1 7c2 6 5 12 4 19-1 4 2 9 6 12l10 9c6 7 12 14 8 25-2 3 1 5 3 6 7 3 5 8 5 13-1 3-1 5 1 7l10 14c3 4 2 9 2 14 0 3-2 5 0 7l8 8c2 1 5 0 6 3 0 4 1 8-1 11l-1 2 10 4c7 4 12 15 10 21-4 9-10 13-21 11l-12-2c-12-2-13-4-14-16-1-3-2-7-5-10-10-9-18-20-24-32l-3-4c-24-16-38-39-49-64-7-19-13-38-17-57-1-4-2-6-5-9-12-9-19-21-19-37 0-3-1-5-5-5-3 1-5-1-7-4-4-6-10-9-17-12l-11-4c-5-1-7-3-6-8v-7c-4-1-6-4-9-5-5-1-4-3-2-6 3-5 6-11 7-18 1-6 0-10-3-15-2-1-2-2-2-4 2-4-1-5-4-5-7-1-15-2-23 0-3 1-5 0-7-4l-4-8c-1-2-3-4-5-4-5-1-6-4-7-7l-8-20c-2-4-2-9-7-12l-3-5-8-23c-1-2-2-4-5-5l-17-7c-3-2-5-4-7-8-3-9-6-18-6-28 0-6 0-11 7-14l1-2c-4-9-7-18-4-28l-6 5c-1 1-3 2-5 1s-1-3-1-5l4-14c2-6 1-8-6-9l-12-1-8-2v-4c3-2 7-3 5-8 0-2 1-3 3-3h10c5 1 8-1 10-5 3-5 6-10 6-16 0-1 1-3 2-2 5 0 11 0 15 5 3 5 8 7 13 7l29 4 31 1c5 0 5 1 3 5l-3 5v2c7-1 12 3 13 10l2 5c2 7 7 11 14 11 5 1 6 2 4 7l-2 10h2c6 0 6 0 6 7-2 12 3 20 14 26 5 2 7 7 7 14-1 8-4 16-7 24-2 5 0 8 5 7 6-1 8-1 5 5l1 2c5 6 4 13 3 19-1 4 0 7 2 10l17 23c5 10 9 19 8 30 0 3 0 4 3 4s4 2 6 5c3 8 6 16 7 25 1 4 1 9-2 12-2 2-1 4 1 5h8c3-2 5-1 6 3 0 4 2 8 1 12 0 3 1 4 4 4 5 1 8 4 9 9l3 16-1 9c-2 2-2 4 2 4 5 1 1 4 2 7h-1 2z"/><path fill-rule="evenodd" clip-rule="evenodd" fill="#000000" d="M1027 2c15 4 21 33 8 43-5 4-7 4-12 0l-6-4c-4-2-7-5-7-10 0-2-2-4-3-5-4-5-4-8 0-12 5-6 10-9 17-12h3z"/><path fill-rule="evenodd" clip-rule="evenodd" fill="#000000" d="M684 688c-4-2-7-7-12-8-4 0-3-4-1-6 5-4 10-8 17-7 5 1 9 1 13 3 6 3 6 7 2 11-3 4-7 6-11 7h-8z"/><path fill-rule="evenodd" clip-rule="evenodd" fill="#000000" d="M413 223l-18 5c-5 2-9 1-12-3-6-7-11-14-13-23-1-5-4-6-8-7l-16-1c-4 0-5-2-3-5l2-6c-2-2-3 0-5 0-4 1-5 0-4-4 0-2 1-4-3-5-2-1-2-4-2-6 1-32-14-59-27-87-2-4-6-9-11-11-3-2-2-5-1-7 1-3 1-7 6-7h7c4 0 8 0 7 6 0 3 2 2 3 2 9-1 18-1 27 1 7 2 13 5 17 11 1 2 2 3 4 1l3-4c6-6 5-12-4-15-5-1-7-3-4-9 1-2-1-2-3-2-3-1-4-3-1-6l3-4c2-3 4-3 7-2l34 14c7 2 12 6 19 7 2 1 3 3 3 6v23c0 3 0 5 4 4h4c4-1 6 1 7 5 1 5 4 9 10 9 2 0 2 1 2 3l1 5c-1 4 1 4 4 4 4-1 6 1 7 6 3 13 9 26 9 40 0 9 4 16 9 22 8 12 18 23 23 36 9 19 22 34 31 52l2 2c6 0 4 3 3 6l-1 4c-1 1 0 3 2 2 4 0 5 2 6 5 6 14 13 27 21 40 5 6 9 12 16 16 3 2 3 6 4 10 2 10 1 13-8 18-2 2-3 3-1 5s2 4 1 7c-1 2 3 5-1 6 1 2 3 2 4 1 2-3 4-1 5 1l8 15c3 3 1 5-1 8-1 3-2 5 2 7 8 4 10 11 12 19v12c-2 9 1 16 10 20 5 3 8 6 9 12 3 11 10 21 15 31l18 35c3 7 2 14 3 21 0 6 2 11 6 16 7 9 7 12 1 22-7 11-6 22-5 34l1 11c0 2 0 4-4 3-2-1-4 0-6 1-6 0-7-2-10-6-5-7 0-13 0-19v-7c0-9 0-10-9-13-4-2-7-5-7-10v-2c-1-8-1-14-8-20-8-7-14-17-14-29 0-3-2-4-5-5-8-4-16-6-25-8-3-1-6-2-4-6 1-2-1-3-2-4l-14-14c-1-2-3-4-3-7 0-4-2-4-5-4l-12 3c-11 1-17-3-18-14v-12c1-8-1-14-7-19-2-2-3-3-2-6 1-9-2-17-5-24-4-9-9-17-16-23-5-3-5-7-4-12l1-11c1-4 0-7-5-7-3 0-5-2-6-5s-1-6-6-7l-1-3c0-4 1-8-2-11-5-4-10-8-16-8-4 0-7 0-6-6 1-2-2-2-3-2-2 0-3-1-4-3-1-6-3-12-2-17 1-3 0-3-2-3-3 0-4-1-4-4 1-5-1-8-6-10-2 0-3-2-3-3 0-5-1-9-3-13-1-1-2-3 0-4 5 0 3-2 1-4-5-9-4-19 2-27 2-2 1-6 1-9l1-6c0-3 1-5-3-5-4 1-4-2-4-4v-5z"/><path fill-rule="evenodd" clip-rule="evenodd" fill="#000000" d="M868 190c3 6 0 8-5 7-2 0-2 1-2 3l-3 14c-3 8-7 15-15 18-3 1-4 3-2 5 2 3 2 6 0 9-3 10-8 19-15 27-11 13-20 28-28 44l-4 8c-5 7-12 13-12 22 1 3-2 6-3 8-3 7-7 12-17 11l2 2c1 1 3 2 2 4s-2 2-4 1c-6 0-11 0-16 3-2 1-3 1-5-1-1-4-4-4-7-2l-7 4c-2 0-4 1-5-1-2-4-5-3-8-3h-10c-13 3-18-8-26-14-2-1 0-4-1-7-1-4 3-10-3-14-1-1 1-3 3-2s2-1 2-3c1-8 0-15-8-19-3-1-3-3-1-5l5-9 35-52c2-2 2-4 2-7 0-6 0-6 6-4l2 1c-1-6 2-8 8-9l3-3c0-9 6-14 13-19l-1-1c-2 0-4 1-5-1-1-3 2-4 3-5a136 136 0 0 1 55-31c-1-5 3-9 4-13 1-6 2-8 9-6l4-1c14-4 28-8 42-15 7-3 14-6 17-14l2-2c5 1 6-5 10-6v-4c0-4 1-5 4-6 5-2 10-4 8-12 0-1 1-2 3-2l8-3 7-6c3-3 5-7 10-9 6-3 12-6 16-11 2-3 5-2 7-2 4 0 7 0 7-5 0-2 1-3 2-3l3-6c0-2-1-5 2-5s6-2 8 3h2l9-3c2 0 4-1 5 2l1 1c6-3 6 3 7 6 4 6 8 11 8 18v10c-1 3-2 5 1 7 2 3-2 8-6 9-8 2-16 2-25 2-3 0-5 1-8 3-9 5-18 11-26 20-8 10-20 17-30 25-4 3-6 5-3 9 1 1 2 2 1 4h-4c-1-1-2-3-4-1-1 3-5 6-1 9 1 1 3 1 3 3-1 2-3 1-4 2h-1c-13 1-17 5-18 18 0 7 0 7-8 5z"/></svg>