<svg width="1012" height="296" viewBox="0 0 1012 296" fill="none" xmlns="http://www.w3.org/2000/svg">
<path d="M489.812 29.875C490.875 28.6667 492 27.4167 493.188 26.125C494.375 24.8125 495.604 23.5208 496.875 22.25C498.167 20.9583 499.5 19.6979 500.875 18.4688C502.271 17.2396 503.708 16.1042 505.188 15.0625C504.479 14.9792 503.771 14.8854 503.062 14.7812C502.354 14.6771 501.562 14.5833 500.688 14.5C499.812 14.3958 498.812 14.3229 497.688 14.2812C496.562 14.2188 495.229 14.1875 493.688 14.1875C491.042 14.1875 488.594 14.4896 486.344 15.0938C484.094 15.6979 482.146 16.4583 480.5 17.375C478.854 18.2917 477.562 19.2917 476.625 20.375C475.708 21.4583 475.25 22.4792 475.25 23.4375C475.25 23.8333 475.323 24.2083 475.469 24.5625C475.615 24.8958 475.865 25.1979 476.219 25.4688C476.594 25.7188 477.073 25.9271 477.656 26.0938C478.26 26.2396 479.021 26.3125 479.938 26.3125C480.667 26.3125 481.385 26.2083 482.094 26C482.823 25.7708 483.521 25.4792 484.188 25.125C484.875 24.75 485.531 24.3333 486.156 23.875C486.781 23.3958 487.365 22.9062 487.906 22.4062C489.177 21.2604 490.375 19.9583 491.5 18.5L491.938 19.3125C491.125 21.25 490.208 22.8229 489.188 24.0312C488.188 25.2396 487.156 26.1771 486.094 26.8438C485.031 27.5104 483.958 27.9688 482.875 28.2188C481.812 28.4479 480.812 28.5625 479.875 28.5625C479.146 28.5625 478.406 28.4896 477.656 28.3438C476.927 28.1771 476.26 27.8958 475.656 27.5C475.073 27.1042 474.594 26.5729 474.219 25.9062C473.865 25.2396 473.688 24.3958 473.688 23.375C473.688 22.375 474 21.3854 474.625 20.4062C475.271 19.4062 476.125 18.4479 477.188 17.5312C478.271 16.6146 479.521 15.7604 480.938 14.9688C482.354 14.1771 483.844 13.4896 485.406 12.9062C486.99 12.3021 488.594 11.8333 490.219 11.5C491.865 11.1667 493.438 11 494.938 11C495.771 11 496.677 11.0625 497.656 11.1875C498.635 11.2917 499.698 11.4375 500.844 11.625C501.99 11.7917 503.229 11.9792 504.562 12.1875C505.896 12.3958 507.333 12.5833 508.875 12.75C509.875 12.1875 510.885 11.6875 511.906 11.25C512.948 10.7917 514 10.4167 515.062 10.125L515.562 10.9375C514.958 11.2917 514.385 11.6458 513.844 12C513.323 12.3333 512.792 12.6875 512.25 13.0625C513.312 13.125 514.427 13.1875 515.594 13.25C516.781 13.2917 518.021 13.3125 519.312 13.3125C520.125 13.3125 520.927 13.3021 521.719 13.2812C522.531 13.2604 523.312 13.2292 524.062 13.1875L523.25 14.3125C521.167 14.6875 519.104 14.9583 517.062 15.125C515.021 15.2917 512.958 15.375 510.875 15.375H509.188C507.979 16.3542 506.844 17.3646 505.781 18.4062C504.74 19.4271 503.75 20.4375 502.812 21.4375C501.875 22.4375 500.99 23.4062 500.156 24.3438C499.344 25.2812 498.562 26.1667 497.812 27C497.188 27.7083 496.458 28.5417 495.625 29.5C494.792 30.4583 493.885 31.5 492.906 32.625C491.927 33.7292 490.906 34.8854 489.844 36.0938C488.781 37.3021 487.708 38.5208 486.625 39.75C485.562 40.9583 484.5 42.1458 483.438 43.3125C482.375 44.4583 481.375 45.5208 480.438 46.5C478.979 48.0208 477.49 49.4167 475.969 50.6875C474.448 51.9583 472.865 53.0625 471.219 54C469.573 54.9167 467.865 55.6354 466.094 56.1562C464.323 56.6771 462.458 56.9375 460.5 56.9375C458.229 56.9375 456.469 56.5 455.219 55.625C453.99 54.75 453.375 53.6042 453.375 52.1875C453.375 51.6667 453.458 51.1354 453.625 50.5938C453.792 50.0312 454.042 49.5312 454.375 49.0938C454.729 48.6354 455.156 48.2708 455.656 48C456.177 47.7083 456.771 47.5625 457.438 47.5625C458.188 47.5625 458.771 47.7604 459.188 48.1562C459.604 48.5521 459.812 49.125 459.812 49.875C459.812 50.5625 459.646 51.125 459.312 51.5625C459 51.9792 458.656 52.3333 458.281 52.625C457.906 52.9167 457.552 53.1875 457.219 53.4375C456.906 53.6667 456.75 53.9375 456.75 54.25C456.75 54.6875 457 55.0208 457.5 55.25C458 55.4583 458.688 55.5625 459.562 55.5625C461.229 55.5625 462.781 55.3125 464.219 54.8125C465.656 54.3125 467.031 53.6146 468.344 52.7188C469.656 51.8229 470.938 50.75 472.188 49.5C473.458 48.25 474.75 46.875 476.062 45.375C478.083 43.0833 480.26 40.625 482.594 38C484.948 35.375 487.354 32.6667 489.812 29.875ZM514 43.25C512.333 44.4375 510.75 45.6979 509.25 47.0312C507.771 48.3646 506.312 49.75 504.875 51.1875C504.521 51.6042 504.135 52.0417 503.719 52.5C503.302 52.9583 502.885 53.4062 502.469 53.8438C502.073 54.2812 501.677 54.7083 501.281 55.125C500.885 55.5208 500.521 55.8542 500.188 56.125C499.938 56.375 499.708 56.5729 499.5 56.7188C499.292 56.8646 499.042 56.9375 498.75 56.9375C498.646 56.9375 498.531 56.9375 498.406 56.9375C498.302 56.9167 498.167 56.875 498 56.8125C497.625 56.6875 497.302 56.5208 497.031 56.3125C496.76 56.0833 496.625 55.8125 496.625 55.5C496.625 55.375 496.656 55.2292 496.719 55.0625C496.781 54.8958 496.875 54.7292 497 54.5625L509.625 40.125C510.646 38.9583 511.74 37.7396 512.906 36.4688C514.094 35.1979 515.312 33.8958 516.562 32.5625C517.812 31.2292 519.073 29.8854 520.344 28.5312C521.635 27.1562 522.917 25.7917 524.188 24.4375C524.604 23.9792 525.156 23.4167 525.844 22.75C526.531 22.0833 527.292 21.3854 528.125 20.6562C528.958 19.9062 529.833 19.1667 530.75 18.4375C531.688 17.7083 532.604 17.0521 533.5 16.4688C534.417 15.8854 535.281 15.4167 536.094 15.0625C536.927 14.6875 537.667 14.5 538.312 14.5C539.167 14.5 539.76 14.7083 540.094 15.125C540.448 15.5417 540.625 16.0833 540.625 16.75C540.604 17.4167 540.302 18.2396 539.719 19.2188C539.156 20.1771 538.427 21.2083 537.531 22.3125C536.635 23.3958 535.635 24.5 534.531 25.625C533.427 26.75 532.333 27.8021 531.25 28.7812C530.188 29.7604 529.198 30.6354 528.281 31.4062C527.365 32.1771 526.646 32.75 526.125 33.125C525.25 33.7708 524.365 34.375 523.469 34.9375C522.594 35.5 521.698 36.0625 520.781 36.625C519.885 37.1875 518.948 37.7812 517.969 38.4062C517.01 39.0312 516.021 39.7292 515 40.5C514.75 40.8542 514.51 41.1875 514.281 41.5C514.052 41.8125 513.812 42.125 513.562 42.4375C513.875 42.1667 514.344 41.8021 514.969 41.3438C515.615 40.8854 516.354 40.4375 517.188 40C518.042 39.5417 518.958 39.1458 519.938 38.8125C520.917 38.4792 521.896 38.3125 522.875 38.3125C524.208 38.3125 525.115 38.5104 525.594 38.9062C526.073 39.2812 526.312 39.8125 526.312 40.5C526.312 41.2917 526.083 42.1146 525.625 42.9688C525.167 43.8021 524.594 44.6354 523.906 45.4688C523.24 46.3021 522.51 47.125 521.719 47.9375C520.948 48.7292 520.219 49.4896 519.531 50.2188C518.865 50.9479 518.302 51.6354 517.844 52.2812C517.406 52.9062 517.188 53.4583 517.188 53.9375C517.188 54.2292 517.24 54.4688 517.344 54.6562C517.448 54.8229 517.573 54.9583 517.719 55.0625C517.885 55.1458 518.062 55.1979 518.25 55.2188C518.458 55.2396 518.667 55.25 518.875 55.25C520.062 55.25 521.24 55.1354 522.406 54.9062C523.573 54.6771 524.719 54.375 525.844 54C526.99 53.625 528.115 53.1979 529.219 52.7188C530.323 52.2188 531.396 51.7083 532.438 51.1875L532.75 51.9375C532.062 52.3958 531.115 52.9167 529.906 53.5C528.698 54.0833 527.344 54.6354 525.844 55.1562C524.344 55.6771 522.74 56.1146 521.031 56.4688C519.344 56.8229 517.667 57 516 57C515.021 57 514.229 56.7604 513.625 56.2812C513.042 55.8021 512.75 55.0417 512.75 54C512.75 53.5 512.917 52.9167 513.25 52.25C513.583 51.5833 514.01 50.8958 514.531 50.1875C515.073 49.4583 515.667 48.7188 516.312 47.9688C516.979 47.2188 517.625 46.5 518.25 45.8125C518.896 45.125 519.5 44.4896 520.062 43.9062C520.625 43.3021 521.083 42.7917 521.438 42.375C521.562 42.1875 521.74 41.9479 521.969 41.6562C522.198 41.3438 522.312 41.0625 522.312 40.8125C522.312 40.6458 522.24 40.5104 522.094 40.4062C521.969 40.3021 521.75 40.25 521.438 40.25C520.792 40.25 520.167 40.3229 519.562 40.4688C518.979 40.5938 518.385 40.7812 517.781 41.0312C517.198 41.2812 516.594 41.5938 515.969 41.9688C515.344 42.3438 514.688 42.7708 514 43.25ZM529.5 24.3125C527.542 26.2708 525.552 28.3229 523.531 30.4688C521.531 32.5938 519.583 34.7917 517.688 37.0625C518.583 36.4792 519.49 35.9062 520.406 35.3438C521.323 34.7812 522.25 34.1875 523.188 33.5625C524.125 32.9375 525.083 32.2604 526.062 31.5312C527.062 30.8021 528.104 29.9583 529.188 29C530.208 28.1042 531.25 27.1354 532.312 26.0938C533.375 25.0521 534.333 24.0417 535.188 23.0625C536.062 22.0625 536.771 21.1354 537.312 20.2812C537.854 19.4271 538.125 18.7292 538.125 18.1875C538.125 17.8958 537.979 17.75 537.688 17.75C537.271 17.75 536.75 17.9583 536.125 18.375C535.5 18.7708 534.812 19.2917 534.062 19.9375C533.333 20.5625 532.573 21.2708 531.781 22.0625C530.99 22.8333 530.229 23.5833 529.5 24.3125ZM553.188 52C550.521 53.2292 548.292 54.1875 546.5 54.875C544.708 55.5625 543.177 56.0833 541.906 56.4375C540.656 56.7708 539.573 56.9792 538.656 57.0625C537.74 57.1458 536.812 57.1875 535.875 57.1875C535.146 57.1875 534.448 57.0938 533.781 56.9062C533.135 56.7188 532.562 56.4271 532.062 56.0312C531.562 55.6354 531.167 55.125 530.875 54.5C530.583 53.875 530.438 53.125 530.438 52.25C530.438 51.25 530.646 50.2188 531.062 49.1562C531.5 48.0729 532.094 47.0208 532.844 46C533.594 44.9583 534.469 43.9792 535.469 43.0625C536.49 42.1458 537.594 41.3438 538.781 40.6562C539.969 39.9479 541.208 39.3958 542.5 39C543.812 38.5833 545.125 38.375 546.438 38.375C546.896 38.375 547.438 38.4167 548.062 38.5C548.688 38.5833 549.281 38.75 549.844 39C550.406 39.2292 550.885 39.5521 551.281 39.9688C551.677 40.3854 551.875 40.9167 551.875 41.5625C551.875 42.1458 551.604 42.75 551.062 43.375C550.521 44 549.792 44.6354 548.875 45.2812C547.979 45.9062 546.938 46.5312 545.75 47.1562C544.562 47.7812 543.333 48.3854 542.062 48.9688C540.812 49.5312 539.552 50.0625 538.281 50.5625C537.01 51.0625 535.833 51.5 534.75 51.875C534.708 52.0417 534.688 52.2083 534.688 52.375C534.688 52.5417 534.688 52.7083 534.688 52.875C534.688 53.6667 534.948 54.3229 535.469 54.8438C535.99 55.3646 536.708 55.625 537.625 55.625C538.438 55.625 539.24 55.5938 540.031 55.5312C540.823 55.4688 541.771 55.3021 542.875 55.0312C543.979 54.7396 545.323 54.3021 546.906 53.7188C548.49 53.1146 550.479 52.2917 552.875 51.25L553.188 52ZM546 40.3125C545.458 40.3125 544.854 40.4688 544.188 40.7812C543.521 41.0729 542.823 41.4792 542.094 42C541.365 42.5 540.635 43.0938 539.906 43.7812C539.198 44.4688 538.521 45.2083 537.875 46C537.25 46.7708 536.688 47.5729 536.188 48.4062C535.688 49.2188 535.312 50.0208 535.062 50.8125C535.979 50.4792 536.927 50.1146 537.906 49.7188C538.906 49.3229 539.875 48.9062 540.812 48.4688C541.771 48.0312 542.677 47.5729 543.531 47.0938C544.385 46.5938 545.135 46.0729 545.781 45.5312C546.427 44.9896 546.938 44.4375 547.312 43.875C547.688 43.2917 547.875 42.6875 547.875 42.0625C547.875 41.5625 547.74 41.1458 547.469 40.8125C547.219 40.4792 546.729 40.3125 546 40.3125Z" fill="white"/>
<path d="M64.4375 141.6V148H26.0375V141.6H19.6375V135.2H13.2375V128.8H6.8375V109.6H0.4375V103.2H6.8375V77.6H13.2375V71.2H19.6375V64.8H26.0375V58.4H64.4375V64.8H70.8375V58.4H77.2375V90.4H70.8375V77.6H64.4375V71.2H58.0375V64.8H32.4375V71.2H26.0375V77.6H19.6375V122.4H26.0375V135.2H32.4375V141.6H64.4375ZM70.8375 141.6H64.4375V135.2H70.8375V128.8H77.2375V135.2H70.8375V141.6ZM134.888 141.6V148H102.888V141.6H90.0875V122.4H83.6875V116H90.0875V96.8H96.4875V90.4H109.288V84H122.088V90.4H134.888V96.8H141.288V103.2H147.688V128.8H141.288V141.6H134.888ZM102.888 141.6H128.488V128.8H134.888V116H128.488V96.8H122.088V90.4H109.288V96.8H102.888V103.2H96.4875V128.8H102.888V141.6ZM147.688 148V141.6H160.488V96.8H154.088V90.4H186.088V84H192.488V90.4H205.288V96.8H211.688V90.4H224.488V84H237.288V90.4H243.688V141.6H256.488V148H224.488V141.6H230.888V96.8H211.688V141.6H218.088V148H186.088V141.6H198.888V103.2H192.488V96.8H173.288V141.6H179.688V148H147.688ZM288.438 173.6V180H256.438V173.6H269.238V96.8H262.838V90.4H294.838V84H307.638V90.4H320.438V103.2H326.838V128.8H320.438V141.6H307.638V128.8H314.038V116H307.638V96.8H275.638V103.2H282.038V141.6H307.638V148H282.038V173.6H288.438ZM371.613 141.6V148H346.013V141.6H339.613V96.8H333.213V90.4H352.413V141.6H371.613V135.2H378.013V96.8H371.613V90.4H390.812V141.6H397.213V148H378.013V141.6H371.613ZM429.163 96.8V141.6H441.963V148H416.363V90.4H409.963V84H416.363V77.6H422.763V71.2H429.163V90.4H422.763V96.8H429.163ZM441.963 90.4V96.8H429.163V90.4H441.963ZM505.913 116H461.113V122.4H467.513V135.2H473.913V141.6H493.113V148H461.113V141.6H454.713V128.8H448.312V109.6H454.713V96.8H461.113V90.4H467.513V96.8H461.113V109.6H493.113V96.8H486.713V90.4H473.913V84H486.713V90.4H493.113V96.8H499.513V109.6H505.913V116ZM499.513 141.6H493.113V135.2H499.513V141.6ZM544.338 90.4V96.8H537.938V90.4H544.338V84H557.138V90.4H563.538V103.2H550.738V90.4H544.338ZM544.338 141.6V148H512.338V141.6H518.738V96.8H512.338V90.4H531.538V96.8H537.938V103.2H531.538V141.6H544.338ZM608.363 141.6V148H601.963V122.4H608.363V128.8H614.763V141.6H646.763V135.2H653.163V122.4H646.763V116H640.363V109.6H621.163V103.2H608.363V96.8H601.963V64.8H608.363V58.4H640.363V64.8H646.763V58.4H653.163V64.8H659.562V90.4H653.163V84H646.763V71.2H640.363V64.8H614.763V71.2H608.363V77.6H614.763V90.4H627.562V96.8H646.763V103.2H653.163V109.6H659.562V141.6H653.163V148H614.763V141.6H608.363ZM691.538 84H704.338V90.4H691.538V96.8H685.138V135.2H691.538V141.6H710.738V148H685.138V141.6H678.738V135.2H672.338V103.2H678.738V90.4H691.538V84ZM710.738 109.6V90.4H717.138V96.8H723.538V109.6H710.738ZM717.138 141.6H710.738V135.2H717.138V141.6ZM736.363 71.2V58.4H749.163V71.2H736.363ZM761.963 141.6V148H729.963V141.6H736.363V96.8H729.963V90.4H749.163V141.6H761.963ZM819.538 116H774.738V122.4H781.138V135.2H787.538V141.6H806.738V148H774.738V141.6H768.338V128.8H761.938V109.6H768.338V96.8H774.738V90.4H781.138V96.8H774.738V109.6H806.738V96.8H800.338V90.4H787.538V84H800.338V90.4H806.738V96.8H813.138V109.6H819.538V116ZM813.138 141.6H806.738V135.2H813.138V141.6ZM870.763 141.6V96.8H851.562V90.4H857.963V84H870.763V90.4H883.562V141.6H896.363V148H864.363V141.6H870.763ZM838.763 103.2H845.163V141.6H851.562V148H825.963V141.6H832.363V96.8H825.963V90.4H845.163V96.8H838.763V103.2ZM845.163 96.8H851.562V103.2H845.163V96.8ZM921.913 84H934.713V90.4H921.913V96.8H915.513V135.2H921.913V141.6H941.113V148H915.513V141.6H909.113V135.2H902.713V103.2H909.113V90.4H921.913V84ZM941.113 109.6V90.4H947.513V96.8H953.913V109.6H941.113ZM947.513 141.6H941.113V135.2H947.513V141.6ZM1011.54 116H966.738V122.4H973.138V135.2H979.538V141.6H998.738V148H966.738V141.6H960.338V128.8H953.938V109.6H960.338V96.8H966.738V90.4H973.138V96.8H966.738V109.6H998.738V96.8H992.338V90.4H979.538V84H992.338V90.4H998.738V96.8H1005.14V109.6H1011.54V116ZM1005.14 141.6H998.738V135.2H1005.14V141.6ZM144.45 219.2V225.6H150.85V257.6H163.65V264H125.25V257.6H138.05V180.8H125.25V174.4H163.65V180.8H150.85V212.8H195.65V180.8H182.85V174.4H221.25V180.8H208.45V257.6H221.25V264H182.85V257.6H195.65V219.2H144.45ZM272.45 257.6V264H240.45V257.6H227.65V238.4H221.25V232H227.65V212.8H234.05V206.4H246.85V200H259.65V206.4H272.45V212.8H278.85V219.2H285.25V244.8H278.85V257.6H272.45ZM240.45 257.6H266.05V244.8H272.45V232H266.05V212.8H259.65V206.4H246.85V212.8H240.45V219.2H234.05V244.8H240.45V257.6ZM336.45 257.6V212.8H317.25V206.4H323.65V200H336.45V206.4H349.25V257.6H362.05V264H330.05V257.6H336.45ZM304.45 219.2H310.85V257.6H317.25V264H291.65V257.6H298.05V212.8H291.65V206.4H310.85V212.8H304.45V219.2ZM310.85 212.8H317.25V219.2H310.85V212.8ZM413.2 257.6V264H381.2V257.6H368.4V238.4H362V232H368.4V212.8H374.8V206.4H387.6V200H400.4V206.4H413.2V212.8H419.6V219.2H426V244.8H419.6V257.6H413.2ZM381.2 257.6H406.8V244.8H413.2V232H406.8V212.8H400.4V206.4H387.6V212.8H381.2V219.2H374.8V244.8H381.2V257.6ZM464.4 206.4V212.8H458V206.4H464.4V200H477.2V206.4H483.6V219.2H470.8V206.4H464.4ZM464.4 257.6V264H432.4V257.6H438.8V212.8H432.4V206.4H451.6V212.8H458V219.2H451.6V257.6H464.4ZM528.425 257.6V264H522.025V238.4H528.425V244.8H534.825V257.6H566.825V251.2H573.225V238.4H566.825V232H560.425V225.6H541.225V219.2H528.425V212.8H522.025V180.8H528.425V174.4H560.425V180.8H566.825V174.4H573.225V180.8H579.625V206.4H573.225V200H566.825V187.2H560.425V180.8H534.825V187.2H528.425V193.6H534.825V206.4H547.625V212.8H566.825V219.2H573.225V225.6H579.625V257.6H573.225V264H534.825V257.6H528.425ZM637.2 257.6V264H605.2V257.6H592.4V238.4H586V232H592.4V212.8H598.8V206.4H611.6V200H624.4V206.4H637.2V212.8H643.6V219.2H650V244.8H643.6V257.6H637.2ZM605.2 257.6H630.8V244.8H637.2V232H630.8V212.8H624.4V206.4H611.6V212.8H605.2V219.2H598.8V244.8H605.2V257.6ZM675.6 200H688.4V206.4H675.6V212.8H669.2V251.2H675.6V257.6H694.8V264H669.2V257.6H662.8V251.2H656.4V219.2H662.8V206.4H675.6V200ZM694.8 225.6V206.4H701.2V212.8H707.6V225.6H694.8ZM701.2 257.6H694.8V251.2H701.2V257.6ZM720.425 187.2V174.4H733.225V187.2H720.425ZM746.025 257.6V264H714.025V257.6H720.425V212.8H714.025V206.4H733.225V257.6H746.025ZM803.6 232H758.8V238.4H765.2V251.2H771.6V257.6H790.8V264H758.8V257.6H752.4V244.8H746V225.6H752.4V212.8H758.8V206.4H765.2V212.8H758.8V225.6H790.8V212.8H784.4V206.4H771.6V200H784.4V206.4H790.8V212.8H797.2V225.6H803.6V232ZM797.2 257.6H790.8V251.2H797.2V257.6ZM829.225 212.8V257.6H842.025V264H816.425V206.4H810.025V200H816.425V193.6H822.825V187.2H829.225V206.4H822.825V212.8H829.225ZM842.025 206.4V212.8H829.225V206.4H842.025ZM893.175 251.2H886.775V238.4H893.175V225.6H899.575V206.4H912.375V212.8H905.975V225.6H899.575V238.4H893.175V251.2ZM880.375 276.8H873.975V264H880.375V257.6H873.975V244.8H867.575V232H861.175V212.8H854.775V206.4H873.975V225.6H880.375V251.2H886.775V264H880.375V276.8ZM867.575 289.6V296H854.775V289.6H848.375V276.8H861.175V289.6H867.575ZM873.975 283.2V289.6H867.575V283.2H873.975Z" fill="white"/>
</svg>
